# xmcd
#
# Track frame offsets: 
#        150
#        7734
#        29282
#        50441
#        66744
#        85941
#        103741
#        123595
#        142121
#        163744
#        181832
#
# Disc length: 2706 seconds
#
# Revision: 9
# Processed by: cddbd v1.5.2PL0 Copyright (c) Steve Scherf et al.
# Submitted via: ExactAudioCopyFreeDBPlugin 1.0
#
DISCID=960a900b
DTITLE=Manau - Panique Celtique
DYEAR=1998
DGENRE=Rap
TTITLE0=Intro
TTITLE1=La Tribu de Dana
TTITLE2=L'avenir est un long passé
TTITLE3=Panique Celtique
TTITLE4=Le Chant des Druides
TTITLE5=Faut pas Tiser en Bretagne
TTITLE6=Le Chien du Forgeron
TTITLE7=La Confession
TTITLE8=Un mauvais Dieu
TTITLE9=Mais qui est la Belette ?
TTITLE10=Je Parle
EXTD=YEAR: 1998
EXTT0=
EXTT1=
EXTT2=
EXTT3=
EXTT4=
EXTT5=
EXTT6=
EXTT7=
EXTT8=
EXTT9=
EXTT10=
PLAYORDER=
